<svg width="19" height="20" viewBox="0 0 19 20" fill="none" xmlns="http://www.w3.org/2000/svg">
<path d="M8.65 16C8.69489 16.0478 8.74911 16.086 8.80931 16.112C8.8695 16.1381 8.9344 16.1515 9 16.1515C9.0656 16.1515 9.1305 16.1381 9.19069 16.112C9.25089 16.086 9.30511 16.0478 9.35 16L12.89 12.47C13.35 12.01 12.63 11.29 12.18 11.76L10.47 13.47V2.13C10.47 1.74014 10.3151 1.36624 10.0394 1.09056C9.76377 0.814878 9.38987 0.660004 9 0.660004C8.61013 0.660004 8.23623 0.814878 7.96055 1.09056C7.68487 1.36624 7.53 1.74014 7.53 2.13V13.51L5.82 11.8C5.37 11.33 4.65 12.05 5.11 12.51L8.65 16ZM8.53 2.13C8.53 2.00535 8.57952 1.88581 8.66766 1.79766C8.7558 1.70952 8.87535 1.66 9 1.66C9.12465 1.66 9.2442 1.70952 9.33234 1.79766C9.42048 1.88581 9.47 2.00535 9.47 2.13V14.24C9.47 14.3647 9.42048 14.4842 9.33234 14.5723C9.2442 14.6605 9.12465 14.71 9 14.71C8.87535 14.71 8.7558 14.6605 8.66766 14.5723C8.57952 14.4842 8.53 14.3647 8.53 14.24V2.13ZM18.05 16.4C18.0343 17.1852 17.7113 17.9329 17.1504 18.4826C16.5895 19.0323 15.8354 19.3402 15.05 19.34H3C2.21464 19.3402 1.46053 19.0323 0.899614 18.4826C0.338698 17.9329 0.0157072 17.1852 0 16.4C0 16.2674 0.0526785 16.1402 0.146447 16.0464C0.240215 15.9527 0.367392 15.9 0.5 15.9C0.632608 15.9 0.759785 15.9527 0.853553 16.0464C0.947321 16.1402 1 16.2674 1 16.4C1.01561 16.92 1.23319 17.4134 1.60658 17.7756C1.97998 18.1378 2.4798 18.3402 3 18.34H15C15.5202 18.3402 16.02 18.1378 16.3934 17.7756C16.7668 17.4134 16.9844 16.92 17 16.4C17 16.2674 17.0527 16.1402 17.1464 16.0464C17.2402 15.9527 17.3674 15.9 17.5 15.9C17.5694 15.8945 17.6392 15.9033 17.7051 15.9259C17.771 15.9484 17.8316 15.9842 17.8831 16.0311C17.9347 16.0779 17.9761 16.1348 18.0048 16.1983C18.0334 16.2617 18.0488 16.3304 18.05 16.4V16.4Z" fill="#FF0651"/>
</svg>
