<svg width="47" height="17" viewBox="0 0 47 17" fill="none" xmlns="http://www.w3.org/2000/svg">
<path fill-rule="evenodd" clip-rule="evenodd" d="M0 0.019043H3.22581H13.2356V3.06581H3.22581V17H0V3.06581V0.019043Z" fill="white"/>
<path fill-rule="evenodd" clip-rule="evenodd" d="M14.4043 4.66331V0.0202637H17.6301V17H4.89844V4.66331H14.4137H14.4043ZM14.4043 13.9545V7.71008H8.12022V13.9545H14.4043Z" fill="white"/>
<path fill-rule="evenodd" clip-rule="evenodd" d="M28.8568 7.71009H22.5727V13.9545H28.8568V7.71009ZM19.3416 4.66713H28.8568V3.06957H19.3483V0.0266113H32.0799V17H19.3483V4.66332L19.3416 4.66713Z" fill="white"/>
<path fill-rule="evenodd" clip-rule="evenodd" d="M33.7644 16.981V12.3291V9.28229H36.9902H43.7742V7.70629H36.9902H33.7644V4.65953V3.0455V0H36.9902H47V3.0455H36.9902V4.65953H43.7742H47V7.70629V9.28229V12.3291H43.7742H36.9902V16.981H33.7644Z" fill="white"/>
<path d="M47 13.9343H38.6587V16.9811H47V13.9343Z" fill="white"/>
</svg>
