<svg width="203" height="96" viewBox="0 0 203 96" fill="none" xmlns="http://www.w3.org/2000/svg">
<path d="M60.8701 21.2408C63.0924 18.9527 65.3147 16.4886 67.537 14.2005M140.429 30.9212C104.65 31.2732 62.2035 27.9291 28.6465 40.0735C16.6461 44.4737 6.86788 52.57 2.42326 62.6024C-3.13252 75.0989 8.4235 84.4273 22.4241 88.6514C50.203 96.9238 83.5377 95.6917 112.65 92.8756C127.539 91.4675 218.654 84.0753 199.32 56.7942C191.764 46.2338 169.986 42.8896 156.429 40.9536C134.873 37.9614 114.428 40.0735 92.8714 41.4816L140.429 30.9212ZM29.7577 24.7609C31.98 19.8327 33.7579 14.9045 35.3135 9.80034L29.7577 24.7609ZM44.2027 23.0009C49.0918 15.6086 53.7587 8.39229 58.6478 1L44.2027 23.0009Z" stroke="#878787" stroke-linecap="round" stroke-linejoin="round"/>
</svg>
