<svg width="96" height="10" viewBox="0 0 96 10" fill="none" xmlns="http://www.w3.org/2000/svg">
<path d="M7.45898 6.15527C7.39258 7.07324 7.05273 7.7959 6.43945 8.32324C5.83008 8.85059 5.02539 9.11426 4.02539 9.11426C2.93164 9.11426 2.07031 8.74707 1.44141 8.0127C0.816406 7.27441 0.503906 6.2627 0.503906 4.97754V4.45605C0.503906 3.63574 0.648438 2.91309 0.9375 2.28809C1.22656 1.66309 1.63867 1.18457 2.17383 0.852539C2.71289 0.516602 3.33789 0.348633 4.04883 0.348633C5.0332 0.348633 5.82617 0.612305 6.42773 1.13965C7.0293 1.66699 7.37695 2.40723 7.4707 3.36035H5.71289C5.66992 2.80957 5.51562 2.41113 5.25 2.16504C4.98828 1.91504 4.58789 1.79004 4.04883 1.79004C3.46289 1.79004 3.02344 2.00098 2.73047 2.42285C2.44141 2.84082 2.29297 3.49121 2.28516 4.37402V5.01855C2.28516 5.94043 2.42383 6.61426 2.70117 7.04004C2.98242 7.46582 3.42383 7.67871 4.02539 7.67871C4.56836 7.67871 4.97266 7.55566 5.23828 7.30957C5.50781 7.05957 5.66211 6.6748 5.70117 6.15527H7.45898ZM12.3715 5.87402H10.9711V8.99707H9.21328V0.46582H12.3832C13.391 0.46582 14.1684 0.69043 14.7152 1.13965C15.2621 1.58887 15.5355 2.22363 15.5355 3.04395C15.5355 3.62598 15.4086 4.1123 15.1547 4.50293C14.9047 4.88965 14.5238 5.19824 14.0121 5.42871L15.8578 8.91504V8.99707H13.9711L12.3715 5.87402ZM10.9711 4.4502H12.3891C12.8305 4.4502 13.1723 4.33887 13.4145 4.11621C13.6566 3.88965 13.7777 3.5791 13.7777 3.18457C13.7777 2.78223 13.6625 2.46582 13.432 2.23535C13.2055 2.00488 12.8559 1.88965 12.3832 1.88965H10.9711V4.4502ZM22.6102 5.2998H19.2352V7.58496H23.1961V8.99707H17.4773V0.46582H23.1844V1.88965H19.2352V3.92285H22.6102V5.2998ZM29.6437 7.23926H26.5617L25.9758 8.99707H24.1066L27.2824 0.46582H28.9113L32.1047 8.99707H30.2355L29.6437 7.23926ZM27.0363 5.81543H29.1691L28.0969 2.62207L27.0363 5.81543ZM39.2203 1.88965H36.607V8.99707H34.8492V1.88965H32.2711V0.46582H39.2203V1.88965ZM42.6973 8.99707H40.9395V0.46582H42.6973V8.99707ZM48.0844 6.88184L50.018 0.46582H51.975L49.0043 8.99707H47.1703L44.2113 0.46582H46.1625L48.0844 6.88184ZM58.5164 5.2998H55.1414V7.58496H59.1023V8.99707H53.3836V0.46582H59.0906V1.88965H55.1414V3.92285H58.5164V5.2998ZM68.7457 6.75879C68.7457 6.42676 68.6285 6.17285 68.3941 5.99707C68.1598 5.81738 67.7379 5.62988 67.1285 5.43457C66.5191 5.23535 66.0367 5.04004 65.6813 4.84863C64.7125 4.3252 64.2281 3.62012 64.2281 2.7334C64.2281 2.27246 64.357 1.8623 64.6148 1.50293C64.8766 1.13965 65.2496 0.856445 65.734 0.65332C66.2223 0.450195 66.7691 0.348633 67.3746 0.348633C67.984 0.348633 68.527 0.459961 69.0035 0.682617C69.4801 0.901367 69.8492 1.21191 70.1109 1.61426C70.3766 2.0166 70.5094 2.47363 70.5094 2.98535H68.7516C68.7516 2.59473 68.6285 2.29199 68.3824 2.07715C68.1363 1.8584 67.7906 1.74902 67.3453 1.74902C66.9156 1.74902 66.5816 1.84082 66.3434 2.02441C66.1051 2.2041 65.9859 2.44238 65.9859 2.73926C65.9859 3.0166 66.1246 3.24902 66.402 3.43652C66.6832 3.62402 67.0953 3.7998 67.6383 3.96387C68.6383 4.26465 69.3668 4.6377 69.8238 5.08301C70.2809 5.52832 70.5094 6.08301 70.5094 6.74707C70.5094 7.48535 70.2301 8.06543 69.6715 8.4873C69.1129 8.90527 68.3609 9.11426 67.4156 9.11426C66.7594 9.11426 66.1617 8.99512 65.6227 8.75684C65.0836 8.51465 64.6715 8.18457 64.3863 7.7666C64.1051 7.34863 63.9645 6.86426 63.9645 6.31348H65.7281C65.7281 7.25488 66.2906 7.72559 67.4156 7.72559C67.8336 7.72559 68.1598 7.6416 68.3941 7.47363C68.6285 7.30176 68.7457 7.06348 68.7457 6.75879ZM74.0625 5.99121V8.99707H72.3047V0.46582H75.6328C76.2734 0.46582 76.8359 0.583008 77.3203 0.817383C77.8086 1.05176 78.1836 1.38574 78.4453 1.81934C78.707 2.24902 78.8379 2.73926 78.8379 3.29004C78.8379 4.12598 78.5508 4.78613 77.9766 5.27051C77.4062 5.75098 76.6152 5.99121 75.6035 5.99121H74.0625ZM74.0625 4.56738H75.6328C76.0977 4.56738 76.4512 4.45801 76.6934 4.23926C76.9395 4.02051 77.0625 3.70801 77.0625 3.30176C77.0625 2.88379 76.9395 2.5459 76.6934 2.28809C76.4473 2.03027 76.1074 1.89746 75.6738 1.88965H74.0625V4.56738ZM87.6586 4.9248C87.6586 5.76465 87.5102 6.50098 87.2133 7.13379C86.9164 7.7666 86.4906 8.25488 85.9359 8.59863C85.3852 8.94238 84.7523 9.11426 84.0375 9.11426C83.3305 9.11426 82.6996 8.94434 82.1449 8.60449C81.5902 8.26465 81.1605 7.78027 80.8559 7.15137C80.5512 6.51855 80.3969 5.79199 80.393 4.97168V4.5498C80.393 3.70996 80.5434 2.97168 80.8441 2.33496C81.1488 1.69434 81.5766 1.2041 82.1273 0.864258C82.682 0.520508 83.3148 0.348633 84.0258 0.348633C84.7367 0.348633 85.3676 0.520508 85.9184 0.864258C86.473 1.2041 86.9008 1.69434 87.2016 2.33496C87.5062 2.97168 87.6586 3.70801 87.6586 4.54395V4.9248ZM85.8773 4.53809C85.8773 3.64355 85.7172 2.96387 85.3969 2.49902C85.0766 2.03418 84.6195 1.80176 84.0258 1.80176C83.4359 1.80176 82.9809 2.03223 82.6605 2.49316C82.3402 2.9502 82.1781 3.62207 82.1742 4.50879V4.9248C82.1742 5.7959 82.3344 6.47168 82.6547 6.95215C82.975 7.43262 83.4359 7.67285 84.0375 7.67285C84.6273 7.67285 85.0805 7.44238 85.3969 6.98145C85.7133 6.5166 85.8734 5.84082 85.8773 4.9541V4.53809ZM95.4539 1.88965H92.8406V8.99707H91.0828V1.88965H88.5047V0.46582H95.4539V1.88965Z" fill="white"/>
</svg>
