<svg width="57" height="26" viewBox="0 0 57 26" fill="none" xmlns="http://www.w3.org/2000/svg">
<g clip-path="url(#clip0_295_12227)">
<path d="M16.3791 17.3095C16.3011 17.3499 16.2232 17.4243 16.1442 17.4254C15.1469 17.4328 14.1495 17.4498 13.1532 17.4254C12.6698 17.4116 12.4592 17.0417 12.4865 16.3998C12.5592 14.7175 12.6824 13.0363 12.6909 11.3539C12.7056 8.39422 12.6593 5.43344 12.6161 2.47371C12.6013 1.43861 12.1885 1.03264 11.1574 0.901923C10.8994 0.868978 10.6456 0.806277 10.3907 0.756328L10.4086 0.556533C10.5446 0.523368 10.683 0.500984 10.8225 0.489582C11.724 0.483205 12.6256 0.477892 13.526 0.489582C14.2095 0.498084 14.3601 0.652179 14.3686 1.36846C14.3801 3.86483 14.3801 6.36333 14.3854 8.8597C14.3816 8.92086 14.3912 8.98211 14.4136 9.03906C14.436 9.09602 14.4706 9.14727 14.515 9.18915C14.6203 8.98298 14.7256 8.77893 14.8309 8.5717C15.2027 7.82778 15.5407 7.06686 15.962 6.35483C16.0471 6.2272 16.1575 6.11873 16.2862 6.03624C16.4149 5.95376 16.5591 5.89904 16.7098 5.87553C18.9709 5.72675 20.6729 7.00097 21.1015 9.24973C21.2879 10.2253 21.2763 11.2466 21.2858 12.2477C21.2964 13.3296 21.19 14.4125 21.2047 15.4944C21.2184 16.4328 21.6176 16.8313 22.5359 17.0141C22.8235 17.0704 23.1089 17.1395 23.3953 17.2022L23.3869 17.3574C23.2089 17.3765 23.0309 17.4126 22.853 17.4137C21.99 17.4186 21.1271 17.4186 20.2642 17.4137C19.5565 17.4137 19.2722 17.1321 19.3238 16.4232C19.4214 15.0771 19.5354 13.7285 19.666 12.3774C19.765 11.3231 19.7166 10.2859 19.3248 9.29542C18.873 8.16042 18.0347 7.50365 16.8161 7.36337C16.3369 7.30704 16.0105 7.44201 15.7166 7.88836C14.5992 9.58874 14.0758 11.44 14.1906 13.4815C14.2274 14.1192 14.1906 14.7568 14.1979 15.3945C14.2085 16.4572 14.6993 16.9886 15.7514 17.0949C15.962 17.1161 16.1727 17.1597 16.3833 17.1926L16.3791 17.3095Z" fill="white"/>
<path d="M25.9881 0.631945C26.0481 0.595812 26.1092 0.525672 26.1703 0.525672C27.2234 0.525672 28.2766 0.511856 29.3298 0.525672C29.6889 0.532048 29.8816 0.758411 29.889 1.13037C29.9059 1.92317 29.9375 2.71597 29.9417 3.50877C29.9501 5.17302 29.9417 6.83833 29.9417 8.50364C29.9247 8.71953 29.9666 8.936 30.0628 9.12959C30.4746 8.31979 30.8959 7.50361 31.2929 6.68317C31.69 5.86274 31.7911 5.79579 32.6968 5.87124C35.3476 6.09123 36.7684 7.66833 36.8379 10.5983C36.8737 12.1042 36.7652 13.6143 36.7157 15.1224C36.6725 16.4274 36.9737 16.8089 38.246 17.0353C38.3966 17.0619 38.5482 17.0884 38.6967 17.1246C38.7858 17.1712 38.8698 17.2271 38.9474 17.2914C38.7515 17.3425 38.5523 17.3798 38.3513 17.403C37.5467 17.42 36.741 17.4423 35.9364 17.4253C35.2592 17.4094 34.8463 16.9598 34.8906 16.2393C34.9685 14.947 35.1012 13.6579 35.2065 12.3667C35.3118 11.0574 35.2676 9.77149 34.5072 8.62586C33.9385 7.76823 33.1107 7.36545 32.1175 7.37289C31.8532 7.37289 31.5004 7.59181 31.3403 7.81924C30.1818 9.46223 29.6184 11.2891 29.7447 13.3232C29.7879 14.0171 29.7447 14.7164 29.7447 15.4136C29.7447 16.4635 30.2008 16.9705 31.2466 17.0895C31.4635 17.1139 31.6805 17.1469 31.8985 17.1766L31.9111 17.3414C31.7741 17.3856 31.6329 17.4155 31.4898 17.4306C30.6273 17.4391 29.7647 17.4445 28.9022 17.4306C28.2555 17.4221 27.968 17.0948 28.0154 16.4317C28.3503 11.7747 28.2924 7.11358 28.1692 2.45135C28.1429 1.4545 27.7353 1.01666 26.7569 0.896566L25.9912 0.80092L25.9881 0.631945Z" fill="white"/>
<path d="M56.3703 9.99684C55.9048 8.16787 55.275 7.5451 53.3856 7.30067C52.6094 7.20078 51.8206 7.1944 51.037 7.15614C50.4241 7.12638 50.0165 7.41757 49.8175 8.00633C49.6068 8.6174 49.7511 9.27418 50.2524 9.62063C50.6298 9.88103 51.0414 10.0871 51.4751 10.2328C52.6852 10.6355 53.9206 10.9597 55.1254 11.3741C56.4651 11.8354 57.078 12.7557 56.9927 14.0863C56.978 14.3147 56.8811 14.6038 56.7189 14.7441C55.7321 15.5943 54.7705 16.4997 53.6837 17.2022C53.2171 17.504 52.4525 17.4817 51.8532 17.3946C50.9549 17.2649 50.0744 16.9695 49.2013 16.7027C48.7664 16.5688 48.5694 16.2489 48.5842 15.7314C48.6274 14.5177 48.5979 13.3019 48.5979 12.0872L48.8085 12.0214C48.9022 12.1051 48.9882 12.1973 49.0655 12.2966C49.1023 12.3529 49.0813 12.4464 49.0865 12.524C49.2572 15.0151 50.4135 15.7207 52.7326 15.8185C53.3645 15.844 53.9964 15.8185 54.6284 15.8281C55.1286 15.8355 55.4077 15.5709 55.5478 15.115C55.8816 14.0257 55.4993 13.2233 54.403 12.9045C53.5415 12.6547 52.6442 12.5315 51.77 12.3147C51.1213 12.1531 50.442 12.0214 49.8627 11.711C49.3878 11.456 48.898 11.0277 48.6632 10.5516C47.9428 9.09776 48.0597 8.68754 49.2245 7.55041C49.5678 7.21459 49.9312 6.89896 50.3009 6.59395C50.9938 6.02114 51.709 5.56735 52.6916 5.68425C53.9175 5.83197 55.137 5.94568 56.1533 6.75336C56.2583 6.82961 56.33 6.94384 56.3535 7.07218C56.3766 8.04034 56.3703 9.01912 56.3703 9.99684Z" fill="white"/>
<path d="M7.30479 6.59397C6.51702 6.53446 5.78611 6.4877 5.05731 6.41331C5.03309 6.41331 5.02572 6.23689 5.0015 6.09448L7.30479 5.90532C7.30479 4.5482 7.34376 3.20278 7.27214 1.8616C7.25845 1.59167 6.86772 1.26966 6.57705 1.10706C6.25478 0.927457 5.84614 0.909389 5.47858 0.810555C5.34185 0.766071 5.20755 0.714279 5.07627 0.655396L5.11419 0.459851H6.22107C6.96883 0.459851 7.71658 0.472604 8.46329 0.459851C8.88456 0.450286 9.04464 0.621388 9.03937 1.04542C9.02252 2.45674 9.02674 3.86911 9.02252 5.28043C9.02252 5.46959 9.02252 5.65982 9.02252 5.90638L11.9061 6.11893L11.9851 6.30172C11.8271 6.38142 11.6692 6.52489 11.5101 6.52914C10.6918 6.55252 9.87349 6.53977 8.96249 6.53977C8.96249 7.94365 8.96249 9.2742 8.96249 10.6037C8.95407 12.1702 8.93195 13.7366 8.92247 15.3031C8.91615 16.3658 9.29846 16.8483 10.3306 17.0938C10.5349 17.1427 10.7413 17.1799 10.9446 17.2309C10.9646 17.2362 10.9709 17.2957 11.0193 17.4275H10.2821C9.76501 17.4275 9.24685 17.4275 8.72974 17.4275C7.28162 17.4275 7.28057 17.4339 7.28268 15.996C7.28268 13.0756 7.28724 10.1548 7.29637 7.23374L7.30479 6.59397Z" fill="white"/>
<path d="M6.73836 17.3191C6.56131 17.3718 6.3797 17.4074 6.19597 17.4254C5.29586 17.4374 4.39504 17.4374 3.49352 17.4254C2.62676 17.4169 2.44034 17.2447 2.44034 16.369C2.42981 13.5251 2.43403 10.6802 2.44034 7.83523C2.44034 6.95848 2.1939 6.65772 1.33451 6.52169C0.897441 6.45261 0.459321 6.3931 0.00540161 6.32615C0.0233347 6.24564 0.0487225 6.167 0.0812304 6.09128C1.20918 6.07534 2.33713 6.02752 3.46298 6.07109C3.94007 6.09022 4.06856 6.50575 4.06645 6.97017C4.05486 9.6015 4.06013 12.2339 4.06013 14.8652C4.06013 16.7548 4.30868 17.012 6.15911 17.0598C6.35231 17.0738 6.54462 17.0982 6.7352 17.1331L6.73836 17.3191Z" fill="white"/>
<path d="M27.6417 17.3531C27.4462 17.3917 27.2485 17.4183 27.0498 17.4328C26.3989 17.4424 25.7481 17.4413 25.0972 17.4328C24.1199 17.4211 23.9587 17.2628 23.9577 16.2925C23.9528 13.5478 23.9507 10.8027 23.9514 8.05733C23.9514 6.89576 23.7155 6.6407 22.5822 6.50467C22.2168 6.4611 21.8577 6.37289 21.4954 6.30488C21.5027 6.24005 21.5112 6.17522 21.5185 6.1104C21.656 6.06945 21.7971 6.0424 21.9398 6.02963C22.8592 6.02431 23.7786 6.01369 24.697 6.03813C25.3605 6.0562 25.5743 6.29956 25.5754 6.97759C25.5796 9.64577 25.5796 12.3139 25.5754 14.9821C25.5754 15.1554 25.5754 15.3296 25.5754 15.5039C25.628 16.623 25.9671 16.9726 27.0667 17.0619C27.2615 17.0778 27.4542 17.1193 27.648 17.149L27.6417 17.3531Z" fill="white"/>
<path d="M25.6995 2.23682C25.6995 3.20178 25.7174 4.05091 25.6827 4.89366C25.6764 5.05201 25.4721 5.31876 25.3341 5.3347C24.8667 5.36922 24.3973 5.36175 23.9313 5.31238C23.8617 5.306 23.7585 5.11046 23.7543 4.99993C23.7354 4.49726 23.7417 3.99352 23.7543 3.49085C23.7482 3.39625 23.7754 3.30252 23.8312 3.22623C24.3388 2.74056 24.9528 2.45468 25.6995 2.23682Z" fill="white"/>
<path d="M4.17883 2.16138C4.17883 3.17523 4.19673 4.00097 4.1704 4.82566C4.15987 5.16573 3.97556 5.3836 3.57641 5.35703C3.19727 5.32833 2.81496 5.35065 2.34525 5.35065C2.34525 4.61311 2.34525 3.89045 2.35156 3.16779C2.35545 3.12066 2.36988 3.07503 2.39378 3.03435C2.41768 2.99366 2.45042 2.95898 2.48953 2.93292C3.01085 2.67999 3.5406 2.44832 4.17883 2.16138Z" fill="white"/>
<path d="M48.862 17.2468C48.7114 17.2266 48.5608 17.2128 48.4092 17.2043C47.3339 17.1416 46.9537 16.7622 46.8799 15.6655C46.8641 15.4338 46.8631 15.2011 46.8641 14.9694C46.8641 13.4986 46.8641 12.0277 46.8831 10.5569C46.8957 9.47928 46.4987 8.55577 45.8626 7.72789C44.4018 5.82878 41.7131 5.40262 39.7942 6.77143C39.296 7.12638 38.8305 7.53023 38.3661 7.93194C38.1278 8.12829 37.9322 8.37216 37.7915 8.64828C37.6509 8.92441 37.5683 9.22684 37.5488 9.53667C37.4909 10.5006 37.4572 11.4677 37.453 12.4337C37.4414 15.0246 38.9611 16.8451 41.5109 17.3223C42.8431 17.5731 43.1254 17.4477 43.7425 16.2245C44.1501 15.4168 44.5145 14.5879 44.901 13.7685L45.0464 13.7866C45.0464 14.743 45.0464 15.6995 45.0464 16.6559C45.0464 17.3414 45.119 17.4126 45.8099 17.4232C46.327 17.4307 46.8452 17.4232 47.3623 17.4232H48.9737C48.8968 17.3032 48.882 17.2468 48.862 17.2468ZM45.0706 11.642C44.8373 12.6378 44.4987 13.6055 44.0606 14.5283C43.5045 15.7431 42.9021 15.9641 41.5962 15.6357C40.2197 15.2893 39.2876 14.0501 39.1739 12.3944C39.1644 12.2445 39.2476 9.24229 39.3645 8.28371C39.4593 7.50897 39.8184 7.20609 40.5735 7.17421C42.0037 7.11257 43.2307 7.60887 44.3049 8.54301C45.2949 9.39852 45.3128 10.5325 45.0695 11.6441L45.0706 11.642Z" fill="white"/>
</g>
<path d="M35.3243 25.1057C35.1704 25.3262 34.9552 25.4915 34.6786 25.6018C34.404 25.7099 34.0837 25.764 33.7177 25.764C33.3475 25.764 33.0189 25.6777 32.7319 25.5051C32.4449 25.3304 32.2223 25.0829 32.0643 24.7626C31.9083 24.4423 31.8282 24.071 31.824 23.6488V23.2526C31.824 22.5684 31.9831 22.038 32.3013 21.6616C32.6216 21.2851 33.0709 21.0969 33.6491 21.0969C34.1233 21.0969 34.5049 21.2186 34.794 21.4619C35.0831 21.7032 35.2599 22.0464 35.3243 22.4914H34.7254C34.613 21.8904 34.2553 21.5898 33.6522 21.5898C33.2508 21.5898 32.9461 21.7313 32.7381 22.0141C32.5322 22.2949 32.4282 22.7025 32.4261 23.237V23.6083C32.4261 24.1178 32.5426 24.5234 32.7755 24.825C33.0085 25.1245 33.3236 25.2742 33.7208 25.2742C33.9454 25.2742 34.142 25.2492 34.3104 25.1993C34.4789 25.1494 34.6182 25.0652 34.7285 24.9466V23.9265H33.6771V23.4398H35.3243V25.1057Z" fill="white"/>
<path d="M39.0139 23.8641H37.947V25.7016H37.3449V21.1593H38.8486C39.3602 21.1593 39.7533 21.2758 40.0278 21.5087C40.3045 21.7417 40.4428 22.0807 40.4428 22.5257C40.4428 22.8086 40.3658 23.0551 40.2119 23.2651C40.0601 23.4752 39.8479 23.6322 39.5755 23.7362L40.6424 25.6642V25.7016H39.9998L39.0139 23.8641ZM37.947 23.3743H38.8673C39.1647 23.3743 39.4008 23.2974 39.5755 23.1434C39.7523 22.9895 39.8407 22.7836 39.8407 22.5257C39.8407 22.245 39.7564 22.0297 39.588 21.88C39.4216 21.7302 39.1803 21.6543 38.8642 21.6522H37.947V23.3743Z" fill="white"/>
<path d="M45.8014 23.5771C45.8014 24.0222 45.7265 24.4111 45.5768 24.7439C45.427 25.0745 45.2149 25.3272 44.9404 25.5019C44.6658 25.6766 44.3455 25.764 43.9795 25.764C43.6218 25.764 43.3046 25.6766 43.028 25.5019C42.7514 25.3252 42.5361 25.0745 42.3822 24.7501C42.2304 24.4236 42.1524 24.0461 42.1482 23.6176V23.2901C42.1482 22.8533 42.2242 22.4675 42.376 22.1327C42.5278 21.7978 42.742 21.542 43.0186 21.3652C43.2973 21.1864 43.6155 21.0969 43.9733 21.0969C44.3372 21.0969 44.6575 21.1853 44.9341 21.3621C45.2128 21.5368 45.427 21.7916 45.5768 22.1264C45.7265 22.4592 45.8014 22.8471 45.8014 23.2901V23.5771ZM45.2055 23.2838C45.2055 22.7452 45.0974 22.3323 44.8811 22.0453C44.6648 21.7562 44.3622 21.6117 43.9733 21.6117C43.5947 21.6117 43.2963 21.7562 43.0779 22.0453C42.8616 22.3323 42.7503 22.7316 42.7441 23.2433V23.5771C42.7441 24.0991 42.8533 24.5099 43.0717 24.8094C43.2921 25.1068 43.5947 25.2555 43.9795 25.2555C44.3663 25.2555 44.6658 25.1151 44.878 24.8343C45.0901 24.5515 45.1993 24.1469 45.2055 23.6208V23.2838Z" fill="white"/>
<path d="M50.9198 21.1593V24.2478C50.9178 24.6763 50.7826 25.0267 50.5143 25.2992C50.2481 25.5716 49.8862 25.7245 49.4286 25.7578L49.2695 25.764C48.7724 25.764 48.3762 25.6298 48.0809 25.3616C47.7856 25.0933 47.6358 24.7241 47.6317 24.2541V21.1593H48.2244V24.2353C48.2244 24.5639 48.3149 24.8198 48.4958 25.0028C48.6768 25.1837 48.9347 25.2742 49.2695 25.2742C49.6085 25.2742 49.8675 25.1837 50.0463 25.0028C50.2273 24.8218 50.3177 24.5671 50.3177 24.2385V21.1593H50.9198Z" fill="white"/>
<path d="M53.4863 23.9234V25.7016H52.8874V21.1593H54.5626C55.0597 21.1593 55.4486 21.2862 55.7294 21.5399C56.0123 21.7937 56.1537 22.1295 56.1537 22.5476C56.1537 22.9885 56.0154 23.3285 55.7388 23.5677C55.4642 23.8048 55.0701 23.9234 54.5564 23.9234H53.4863ZM53.4863 23.4336H54.5626C54.8829 23.4336 55.1283 23.3587 55.2989 23.209C55.4694 23.0571 55.5547 22.8388 55.5547 22.5538C55.5547 22.2834 55.4694 22.0671 55.2989 21.9049C55.1283 21.7427 54.8944 21.6585 54.597 21.6522H53.4863V23.4336Z" fill="white"/>
<defs>
<clipPath id="clip0_295_12227">
<rect width="57" height="21.8148" fill="white" transform="translate(0 0.455566)"/>
</clipPath>
</defs>
</svg>
