<svg width="64" height="17" viewBox="0 0 64 17" fill="none" xmlns="http://www.w3.org/2000/svg">
<path d="M12.0927 16.6146C12.0927 16.3631 12.0927 16.1668 12.0927 15.9695C12.0846 14.8663 12.0873 13.7631 12.0604 12.6599C12.047 12.1102 11.8652 11.912 11.4622 11.912C11.0593 11.912 10.847 12.0934 10.8264 12.6272C10.7817 13.7902 10.7611 15.445 10.7673 16.609C10.6072 16.6238 10.4462 16.6279 10.2855 16.6211C9.12498 16.6024 7.96381 16.6024 6.80205 16.6211C6.65693 16.6269 6.51161 16.6238 6.36684 16.6118C6.38743 13.7519 6.37938 10.4414 6.41878 7.58246C6.43042 6.68215 6.56833 5.7809 6.99011 4.97127C7.63755 3.73158 8.70947 3.11174 9.99362 2.86586C11.4166 2.59287 12.8207 2.69945 14.1407 3.35295C15.5054 4.02889 16.3069 5.16573 16.4332 6.75881C16.495 7.54787 16.5182 8.34068 16.5227 9.13254C16.5344 11.4324 16.5182 14.3119 16.537 16.6118C16.537 16.6118 16.4412 16.638 15.9997 16.6258C14.8839 16.5978 13.7673 16.6183 12.6506 16.6193L12.0927 16.6146Z" fill="white"/>
<path d="M46.659 10.0742C46.659 10.9894 46.6957 11.9066 46.6509 12.82C46.5614 14.716 45.2862 16.2632 43.4029 16.6952C41.9459 17.0289 40.48 16.9915 39.049 16.4717C37.6547 15.965 36.8667 14.8553 36.7852 13.4136C36.6441 11.123 36.6441 8.82524 36.7852 6.53459C36.9034 4.74705 37.9162 3.53821 39.6508 3.02962C41.4418 2.50514 43.1961 2.60144 44.8205 3.60646C45.9318 4.29456 46.5981 5.35193 46.6617 6.72251C46.7145 7.83692 46.6724 8.95694 46.6724 10.0742H46.659ZM42.305 10.2798H42.2943C42.2943 9.4889 42.3095 8.69703 42.288 7.9061C42.2782 7.54429 42.1627 7.23951 41.7095 7.25167C41.2779 7.25915 41.0755 7.47511 41.0746 7.9061C41.0693 9.41037 41.0558 10.9146 41.08 12.4189C41.0881 12.9387 41.3003 13.1117 41.7319 13.1089C42.1636 13.1061 42.2898 12.7929 42.2997 12.4273C42.3185 11.7084 42.305 10.9941 42.305 10.2798V10.2798Z" fill="white"/>
<path d="M35.6944 9.72633C35.6335 10.8379 35.6003 11.9084 35.5099 12.9742C35.3532 14.7991 34.412 16.05 32.7643 16.6147C31.1416 17.1701 29.4805 17.1074 27.865 16.5128C26.4322 15.9855 25.731 14.7973 25.6558 13.3126C25.5452 11.2234 25.5363 9.12961 25.6289 7.0394C25.757 4.25619 27.5516 3.01931 29.7948 2.85663C31.0369 2.76314 32.2619 2.85664 33.3947 3.48396C34.5759 4.13185 35.3451 5.11911 35.5018 6.5168C35.6227 7.58913 35.6353 8.6811 35.6944 9.72633ZM31.2016 10.0517C31.2016 9.33741 31.2115 8.62407 31.2016 7.91074C31.1945 7.51714 30.9572 7.32081 30.5945 7.31801C30.2318 7.3152 29.9614 7.48442 29.9578 7.87895C29.9447 9.44523 29.9464 11.0109 29.9632 12.5759C29.9676 12.9807 30.2318 13.1995 30.6142 13.1799C30.9679 13.163 31.1999 12.9564 31.2025 12.5591C31.2052 11.7261 31.2016 10.8884 31.2016 10.0517Z" fill="white"/>
<path d="M53.0886 3.09398C53.4844 3.09398 54.4694 3.10613 54.4694 3.10613C54.4927 4.00364 54.4838 5.16293 54.4838 6.14458C54.1139 6.14458 53.779 6.14458 53.4432 6.14458C53.3237 6.14048 53.2041 6.14329 53.085 6.153C53.1154 8.12565 53.1495 10.4442 53.1656 12.4169C53.1656 12.9152 53.3841 13.0994 53.8426 13.1199C54.4811 13.148 54.4784 13.1695 54.4802 13.8389C54.4802 14.6158 54.4739 15.3927 54.4945 16.1687C54.5035 16.4949 54.3906 16.6202 54.0844 16.6081C52.939 16.5641 51.7964 16.5641 50.6555 16.4753C50.1374 16.4282 49.6544 16.1824 49.2998 15.7852C48.9452 15.3881 48.7442 14.8679 48.7355 14.325C48.706 11.8082 48.6943 8.66416 48.6979 6.14739C48.6979 6.14739 48.6388 6.13804 48.1149 6.13804C47.7827 6.13804 47.7227 6.14739 47.7227 6.14739C47.737 5.43312 47.7397 3.81666 47.7227 3.1024H48.7006C48.6764 2.70038 48.7069 1.40647 48.7006 1.00259C48.7006 1.00259 48.7902 1.00259 49.0194 1.00259C50.2695 1.00758 51.5196 1.00571 52.7698 0.996982C52.8791 0.992433 52.9886 0.995246 53.0975 1.0054C53.0814 1.54858 53.0886 2.44702 53.0886 3.09398Z" fill="white"/>
<path d="M58.7239 6.03056C57.9708 6.03056 57.2463 6.03056 56.5228 6.03056C55.7338 6.02495 55.7884 6.02214 55.7884 6.02214C55.7884 5.41539 55.7956 3.64561 55.7884 3.03979C55.7884 3.03979 55.8664 3.03979 56.1466 3.03979C58.3048 3.04727 60.4627 3.04727 62.6202 3.03979H62.9784C62.9784 3.9747 63.0563 5.25459 62.9578 6.17453C62.9014 6.70182 62.5799 7.20293 62.3426 7.70124C61.5546 9.35228 60.7495 10.9949 59.9543 12.6422C59.8876 12.8102 59.8296 12.9819 59.7806 13.1564C60.4647 13.1564 61.0692 13.1667 61.6737 13.1564C62.0856 13.1508 62.9757 13.1508 62.9757 13.1508C62.9874 13.7118 62.9757 16.61 62.9757 16.61C60.7576 16.5969 57.6403 16.5959 55.4231 16.6044C55.4231 16.6044 55.3702 14.225 55.4652 13.2882C55.518 12.7619 55.8234 12.2533 56.058 11.7578C56.9177 9.92632 57.8024 8.09951 58.6791 6.26896C58.7018 6.19131 58.7168 6.11142 58.7239 6.03056V6.03056Z" fill="white"/>
<path d="M21.8919 2.95754V4.54688C22.0988 3.95789 22.3396 3.40536 22.945 3.20342C23.3498 3.06786 24.0196 2.994 24.4486 2.95286C24.5381 2.94445 24.4951 3.17537 24.496 3.2913C24.5157 4.7348 24.5032 6.41202 24.5112 7.85645C24.5112 7.9836 24.3035 7.99201 24.0536 8.04998C23.5548 8.1659 23.0113 8.23135 22.5868 8.49406C21.9205 8.90542 21.9098 9.69448 21.9026 10.4078C21.882 12.2402 21.8955 14.0726 21.8964 15.9051V16.6025C21.6582 16.6203 17.4833 16.6025 17.4833 16.6025C17.4932 12.3636 17.4914 7.61618 17.4923 3.37638C17.4923 3.1707 17.4753 2.95286 17.7663 2.95286L21.8919 2.95754Z" fill="white"/>
<path d="M1.93403 11.0483C3.16445 11.1287 4.30173 10.8613 5.35216 10.061C5.37704 10.1964 5.39439 10.3331 5.4041 10.4705C5.4041 12.3497 5.39425 14.7309 5.4041 16.61C5.25065 16.6314 5.0955 16.6361 4.94112 16.6241C3.77697 16.5998 2.61999 16.6044 1.46031 16.6241C1.30561 16.6297 1.15073 16.6259 0.996445 16.6128C1.00898 13.5847 0.996445 10.0928 1.00809 7.06371C1.01346 5.63143 2.06119 4.12903 3.39549 3.66439C3.91219 3.48395 4.46292 3.41196 4.99933 3.29042C5.27783 3.22965 5.40499 3.32501 5.4023 3.65036C5.39245 5.18735 5.42469 6.72621 5.38887 8.26226C5.37365 8.94287 4.82202 9.32618 4.38771 9.72819C3.73668 10.3293 2.99341 10.7772 2.11582 10.9333C2.04933 10.9604 1.98782 10.9993 1.93403 11.0483Z" fill="white"/>
</svg>
