<svg width="55" height="28" viewBox="0 0 55 28" fill="none" xmlns="http://www.w3.org/2000/svg">
<path d="M23.8947 22.0575C23.4027 22.2384 22.9013 22.3917 22.3929 22.517C21.2955 22.7081 20.1671 22.5053 19.2002 21.9431C18.2332 21.3809 17.4878 20.4941 17.0911 19.4342C16.7733 18.6685 16.6408 17.8362 16.7048 17.0073C16.7687 16.1785 17.0272 15.3775 17.4585 14.6718C17.8899 13.9661 18.4813 13.3763 19.1831 12.9522C19.8849 12.5281 20.6765 12.2821 21.4911 12.235C24.1129 12.1053 26.2438 13.6244 26.3456 16.4589C26.4365 18.9785 26.4729 21.5092 26.3456 24.0287C26.222 26.463 24.2983 27.7339 22.0692 27.8784C21.4381 27.9455 20.8002 27.8816 20.194 27.6905C19.5877 27.4995 19.0258 27.1853 18.542 26.7669C17.8983 26.1963 17.8147 25.4219 18.3202 24.8216C18.8256 24.2214 19.5965 24.1992 20.2256 24.8476C20.5091 25.1806 20.8906 25.4113 21.3132 25.5055C21.7359 25.5996 22.1771 25.5521 22.5711 25.37C23.4547 24.9995 23.8256 24.2251 23.8947 23.2951C23.9202 22.9246 23.8947 22.5392 23.8947 22.0575ZM24.3238 17.3963C24.2995 16.8763 24.1256 16.3751 23.8237 15.955C23.5218 15.535 23.1053 15.2148 22.6261 15.0342C22.1468 14.8536 21.626 14.8208 21.1286 14.9396C20.6311 15.0585 20.179 15.3239 19.8285 15.7027C19.4781 16.0816 19.2447 16.5571 19.1576 17.0701C19.0705 17.5831 19.1334 18.1109 19.3386 18.5877C19.5437 19.0645 19.882 19.4693 20.3113 19.7516C20.7406 20.0339 21.242 20.1812 21.7529 20.1753C22.4535 20.1482 23.1156 19.8418 23.5965 19.3219C24.0774 18.8021 24.3386 18.1106 24.3238 17.3963V17.3963Z" fill="white"/>
<path d="M51.2728 22.0613C50.9038 22.2019 50.5227 22.3073 50.1346 22.3762C49.2918 22.5036 48.4368 22.5235 47.5892 22.4355C46.1092 22.165 45.211 20.9275 45.1455 19.186C45.0801 17.4446 45.1128 15.6957 45.1455 13.9505C45.1455 13.6062 45.2787 13.2757 45.5163 13.0309C45.7539 12.786 46.0767 12.6465 46.4146 12.6426C46.5871 12.6459 46.7573 12.6842 46.9152 12.7551C47.0731 12.8261 47.2156 12.9283 47.3343 13.0559C47.4531 13.1835 47.5458 13.3338 47.607 13.4982C47.6683 13.6626 47.6968 13.8378 47.691 14.0135C47.7128 15.3029 47.691 16.6072 47.691 17.8781C47.6837 18.1826 47.7093 18.487 47.7673 18.7858C48.0001 19.8381 48.6873 20.2902 49.8219 20.1753C50.2441 20.1421 50.6368 19.9415 50.9155 19.6166C51.1943 19.2917 51.3369 18.8684 51.3128 18.4376C51.3346 16.9962 51.3128 15.5549 51.3128 14.1173C51.3026 13.7944 51.4014 13.4778 51.5926 13.2202C51.7839 12.9627 52.056 12.7797 52.3637 12.7019C52.6365 12.6351 52.9233 12.6635 53.1784 12.7824C53.4335 12.9012 53.6421 13.1038 53.771 13.3577C53.9103 13.6747 53.9822 14.0182 53.9819 14.3655C54.0001 17.4408 54.0401 20.5199 53.9819 23.5952C53.9201 26.7521 51.5455 28.1267 48.8182 27.9859C47.7127 27.9895 46.6484 27.5581 45.8473 26.7817C45.3055 26.2222 45.2873 25.5627 45.7928 25.0514C45.9003 24.9205 46.0342 24.8146 46.1854 24.7409C46.3365 24.6672 46.5014 24.6275 46.669 24.6243C46.8365 24.6212 47.0027 24.6547 47.1565 24.7226C47.3102 24.7905 47.4478 24.8913 47.5601 25.018C48.9019 26.4446 50.8946 25.7591 51.2582 24.277C51.4037 23.6175 51.2728 22.8912 51.2728 22.0613Z" fill="white"/>
<path d="M7.85471 12.913C7.85471 11.6755 7.85471 10.5454 7.85471 9.41529C7.83771 9.12928 7.91663 8.84587 8.07851 8.61158C8.24039 8.37728 8.47563 8.20601 8.74562 8.12587C8.96923 8.04203 9.21397 8.03698 9.44073 8.11154C9.66749 8.18609 9.86318 8.33594 9.99652 8.53715C10.1723 8.77854 10.269 9.07024 10.2729 9.37082C10.2947 12.1609 10.3129 14.9509 10.2729 17.7446C10.2438 19.9678 8.41107 22.0501 6.18925 22.4984C5.1978 22.6938 4.17219 22.5955 3.23385 22.2153C2.29552 21.8351 1.48376 21.1889 0.894705 20.3531C0.31407 19.4965 0.00308228 18.48 0.00308228 17.439C0.00308228 16.3979 0.31407 15.3814 0.894705 14.5248C2.15652 12.5388 4.95289 11.6977 7.14562 12.6388C7.33834 12.7278 7.55289 12.7982 7.85471 12.913ZM7.85471 17.4408C7.85665 16.7032 7.58032 15.9931 7.08286 15.4572C6.5854 14.9214 5.90486 14.6008 5.18198 14.5618C4.45793 14.5889 3.77114 14.8958 3.26119 15.4202C2.75123 15.9447 2.45637 16.6473 2.43652 17.3852C2.42668 18.1344 2.70643 18.8574 3.21535 19.3982C3.72428 19.9389 4.42154 20.254 5.15652 20.2753C5.88153 20.2597 6.57121 19.9533 7.07574 19.4226C7.58028 18.8918 7.85889 18.1797 7.85107 17.4408H7.85471Z" fill="white"/>
<path d="M35.3347 12.8131C36.0893 12.6053 36.854 12.4371 37.6256 12.3092C38.8585 12.1747 40.0966 12.5115 41.0997 13.2543C42.1028 13.9971 42.7995 15.0929 43.0547 16.3294C43.2162 17.0793 43.2124 17.8563 43.0436 18.6045C42.8747 19.3527 42.5449 20.0534 42.0781 20.656C41.6112 21.2585 41.0189 21.748 40.3439 22.0891C39.6689 22.4302 38.928 22.6143 38.1747 22.6283C35.4728 22.7024 33.0547 20.6349 32.9419 17.9189C32.8219 15.0437 32.8983 12.1573 32.9092 9.27834C32.918 8.98093 33.0304 8.69642 33.2263 8.47577C33.4222 8.25512 33.6888 8.11274 33.9783 8.07414C34.2688 8.04894 34.5581 8.13473 34.79 8.31484C35.0219 8.49495 35.1797 8.7565 35.2328 9.04862C35.3347 9.90823 35.3128 10.7827 35.3347 11.6423C35.3456 12.0276 35.3347 12.4167 35.3347 12.8131ZM40.7601 17.3965C40.7408 16.6607 40.4495 15.9595 39.9445 15.4332C39.4394 14.907 38.758 14.5945 38.0365 14.5583C37.3148 14.585 36.6312 14.8949 36.1284 15.4231C35.6256 15.9513 35.3425 16.657 35.3383 17.3928C35.3286 17.7626 35.3908 18.1306 35.5211 18.4759C35.6514 18.8211 35.8474 19.1367 36.0978 19.4046C36.3481 19.6724 36.648 19.8873 36.98 20.0367C37.3121 20.1862 37.6699 20.2673 38.0328 20.2755C38.7663 20.2532 39.4621 19.9397 39.9717 19.4017C40.4813 18.8638 40.7642 18.1441 40.7601 17.3965V17.3965Z" fill="white"/>
<path d="M27.6363 4.72077C24.8726 9.21892 20.7926 10.9307 15.7817 10.7158L15.9199 8.82987C20.029 8.82987 23.6036 7.67755 25.8145 3.83522L25.7381 3.62032C25.1854 3.72036 24.6472 3.85005 24.0763 3.91674C23.9643 3.93354 23.8502 3.9277 23.7404 3.89955C23.6306 3.87139 23.5274 3.82149 23.4365 3.75267C23.3457 3.68386 23.2691 3.59748 23.211 3.49849C23.1529 3.39949 23.1146 3.2898 23.0981 3.17569C23.045 2.96148 23.0695 2.73495 23.167 2.53761C23.2645 2.34027 23.4285 2.18533 23.629 2.10118C23.7437 2.03915 23.866 1.99304 23.9926 1.96408C25.149 1.65655 26.3017 1.3379 27.4654 1.0563C27.6399 0.999926 27.824 0.981155 28.006 1.00118C28.188 1.02121 28.364 1.0796 28.5227 1.17264C28.6813 1.26567 28.8193 1.39133 28.9277 1.54162C29.0362 1.6919 29.1128 1.86353 29.1526 2.0456C29.5187 3.33996 29.8532 4.64296 30.1563 5.95461C30.2149 6.18004 30.1851 6.41988 30.0731 6.62326C29.9611 6.82663 29.7757 6.97754 29.5563 7.04395C29.4549 7.09612 29.3443 7.12734 29.231 7.13583C29.1178 7.14431 29.0039 7.12989 28.8961 7.09339C28.7883 7.05688 28.6887 6.99903 28.6029 6.92314C28.5171 6.84725 28.4469 6.75483 28.3963 6.6512C28.2512 6.3377 28.1379 6.00994 28.0581 5.67302C27.9672 5.39142 27.8872 5.10241 27.8036 4.81711L27.6363 4.72077Z" fill="white"/>
<path d="M14.7927 17.4595C14.7927 18.6785 14.7927 19.9013 14.7927 21.124C14.7927 22.0095 14.3054 22.5542 13.5527 22.5616C13.3702 22.5687 13.1884 22.5361 13.0193 22.4659C12.8502 22.3957 12.6977 22.2895 12.5721 22.1545C12.4465 22.0195 12.3506 21.8587 12.2908 21.6829C12.231 21.5071 12.2087 21.3204 12.2254 21.1351C12.2254 18.6477 12.2254 16.1602 12.2254 13.6728C12.2204 13.3122 12.3497 12.963 12.5872 12.6956C12.8247 12.4282 13.1527 12.2623 13.5054 12.2314C13.6833 12.2345 13.8586 12.2745 14.0208 12.3491C14.1829 12.4237 14.3284 12.5312 14.4482 12.6651C14.5681 12.7991 14.6598 12.9566 14.7178 13.1279C14.7758 13.2993 14.7988 13.4809 14.7854 13.6617C14.8036 14.9289 14.7927 16.1923 14.7927 17.4595Z" fill="white"/>
<path d="M28.4003 17.3853C28.4003 16.1626 28.4003 14.9436 28.4003 13.7209C28.4003 12.8353 28.9349 12.2388 29.684 12.2388C30.0398 12.2698 30.3706 12.4383 30.6085 12.7097C30.8464 12.9811 30.9736 13.3348 30.964 13.6986C30.9785 16.1861 30.9785 18.671 30.964 21.1535C30.9781 21.3393 30.9533 21.526 30.8912 21.7012C30.8292 21.8764 30.7314 22.0363 30.6042 22.1701C30.4769 22.3039 30.3233 22.4086 30.1534 22.4774C29.9835 22.5462 29.8011 22.5774 29.6185 22.5689C28.8549 22.5689 28.4076 22.028 28.4003 21.1202C28.3931 19.8678 28.4003 18.6118 28.4003 17.3853Z" fill="white"/>
<path d="M29.6219 8.13699C29.9638 8.15098 30.2873 8.29823 30.5257 8.54832C30.7641 8.79842 30.8991 9.13226 30.9028 9.48087C30.9066 9.82948 30.7787 10.1662 30.5458 10.4216C30.3128 10.6769 29.9925 10.8313 29.651 10.8529C29.4753 10.8559 29.3008 10.8233 29.1375 10.7572C28.9742 10.691 28.8254 10.5926 28.6996 10.4676C28.5739 10.3425 28.4737 10.1933 28.4048 10.0286C28.3359 9.86393 28.2997 9.68695 28.2983 9.50792C28.2944 9.32867 28.3258 9.15045 28.3907 8.98379C28.4555 8.81713 28.5525 8.66541 28.6759 8.5376C28.7993 8.40979 28.9466 8.30849 29.1091 8.23968C29.2716 8.17087 29.446 8.13595 29.6219 8.13699Z" fill="white"/>
<path d="M14.738 9.47097C14.7365 9.82226 14.6023 10.1595 14.3633 10.4126C14.1243 10.6658 13.7988 10.8156 13.4544 10.8308C13.1254 10.801 12.817 10.6545 12.5831 10.4168C12.3492 10.1792 12.2046 9.86542 12.1744 9.53026C12.1868 9.19225 12.3188 8.87024 12.546 8.62369C12.7733 8.37715 13.0804 8.22273 13.4107 8.18896C13.7508 8.18939 14.0779 8.32247 14.3247 8.56088C14.5715 8.7993 14.7194 9.12495 14.738 9.47097V9.47097Z" fill="white"/>
</svg>
