<svg width="66" height="26" viewBox="0 0 66 26" fill="none" xmlns="http://www.w3.org/2000/svg">
<g clip-path="url(#clip0_295_12248)">
<path d="M64.8483 0.464608C64.8483 0.220448 64.8002 0.148636 64.5566 0.152227H60.7175C60.4876 0.152227 60.4361 0.220448 60.4361 0.453836V9.25796C60.4542 9.36809 60.4423 9.48131 60.4018 9.5847C60.3435 9.49494 60.292 9.42313 60.2406 9.34772L54.3051 0.371252C54.2679 0.30273 54.2123 0.247143 54.1452 0.211396C54.0781 0.175649 54.0025 0.161317 53.9277 0.17018H51.0423C50.7747 0.17018 50.7198 0.241991 50.7198 0.529238V17.6061H55.1251V10.8306C55.1182 10.5698 55.1354 10.3089 55.1765 10.0515L60.2337 17.5917H64.8345L64.8483 0.464608Z" fill="white"/>
<path d="M15.0245 12.364C14.8461 10.8919 14.0227 9.82187 12.8391 9.04271L12.4171 8.77701L12.6058 8.61543C13.04 8.26042 13.3981 7.81394 13.6569 7.3049C13.9158 6.79585 14.0696 6.23559 14.1085 5.66038C14.1572 4.99646 14.0805 4.329 13.8827 3.69612C13.6849 3.06323 13.3699 2.47732 12.9558 1.97185C12.5416 1.46638 12.0363 1.05124 11.4688 0.750146C10.9013 0.449053 10.2827 0.267903 9.64832 0.217041C9.52137 0.217041 9.39443 0.217041 9.26748 0.217041H0.916656V17.3729C0.916656 17.5668 0.950966 17.6063 1.13623 17.6027H13.364L13.5733 17.3477C14.1516 16.6806 14.5816 15.8877 14.8325 15.0261C15.0834 14.1644 15.149 13.2553 15.0245 12.364V12.364ZM5.53809 4.41444H8.55386C8.70451 4.40273 8.85589 4.4224 8.99923 4.47232C9.14258 4.52224 9.27504 4.60142 9.38895 4.70527C9.50285 4.80912 9.59595 4.93559 9.66285 5.07734C9.72975 5.2191 9.76912 5.37333 9.77869 5.53111C9.78555 5.60395 9.78555 5.67731 9.77869 5.75014C9.80533 6.07244 9.70864 6.39263 9.50987 6.64039C9.31109 6.88814 9.02647 7.04319 8.71854 7.07148C8.65804 7.07686 8.5972 7.07686 8.5367 7.07148H5.52093C5.35282 7.07148 5.30479 7.03198 5.30822 6.85245V4.62988C5.30479 4.44676 5.37684 4.41444 5.53809 4.41444ZM10.5232 13.8397C10.4349 14.1263 10.26 14.3751 10.0248 14.5486C9.78969 14.7222 9.50705 14.8111 9.21945 14.802H5.5175C5.35282 14.802 5.30479 14.7589 5.30822 14.583V11.5741C5.30822 11.391 5.36654 11.3586 5.52436 11.3586H9.21259C9.57722 11.3498 9.93068 11.4906 10.1974 11.7509C10.4641 12.0113 10.6229 12.3705 10.6398 12.7518C10.6891 13.1189 10.649 13.4932 10.5232 13.8397Z" fill="white"/>
<path d="M33.3972 5.27608C32.3358 3.18129 30.5804 1.56394 28.4604 0.727641C26.3404 -0.108659 24.0016 -0.106403 21.8831 0.733986C18.3904 2.10918 16.3936 4.82367 15.9373 8.70151C15.7681 9.98451 15.8552 11.2903 16.193 12.5363C16.5308 13.7822 17.112 14.9413 17.8998 15.9401C18.3885 16.5456 18.9345 17.0978 19.5295 17.5882H30.7417C31.1603 17.1753 31.62 16.8055 32.0145 16.3638C33.2976 14.8836 34.1176 13.0282 34.3647 11.0465C34.6118 9.06479 34.2743 7.05136 33.3972 5.27608V5.27608ZM29.3076 12.7158C28.939 13.3602 28.4322 13.906 27.8271 14.3098C27.2221 14.7137 26.5355 14.9645 25.8218 15.0425C25.0961 15.1715 24.3518 15.125 23.6459 14.9066C22.94 14.6881 22.2912 14.3035 21.7493 13.7822C20.9561 13.023 20.4466 11.9934 20.3117 10.8774C20.0872 9.61895 20.2644 8.31815 20.8161 7.1755C21.6807 5.4592 23.1079 4.62978 24.9332 4.54719C25.7485 4.47311 26.568 4.62607 27.3085 4.99057C28.0491 5.35506 28.6843 5.9181 29.1497 6.62255C29.7814 7.58915 30.0935 8.74552 30.0383 9.91512C30.049 10.9017 29.7958 11.8718 29.3076 12.7158Z" fill="white"/>
<path d="M45.6625 12.3603L46.0674 12.1198C46.2046 12.0336 46.3487 11.951 46.4757 11.8541C47.3834 11.2132 48.1099 10.3289 48.5795 9.29368C49.049 8.25846 49.2443 7.11027 49.1449 5.96907C49.1164 4.95698 48.8382 3.96982 48.3375 3.10347C47.8367 2.23713 47.1303 1.52106 46.287 1.02483C45.2992 0.432835 44.1759 0.133678 43.0379 0.1595H36.2721C36.0114 0.1595 35.929 0.22054 35.929 0.493425V17.5954H40.3721V13.0066C40.3721 12.8415 40.4304 12.8199 40.5711 12.7984C40.7175 12.7741 40.8676 12.8002 40.9987 12.8727C41.1298 12.9452 41.235 13.0602 41.2984 13.2005C42.139 14.6727 43.0139 16.1233 43.875 17.581H48.9974C48.8426 17.2393 48.6503 16.9175 48.4244 16.6224C47.5118 15.2101 46.5912 13.7894 45.6625 12.3603ZM44.2181 8.11625C43.8956 8.4237 43.4775 8.59845 43.0413 8.60816C42.2076 8.62611 41.3705 8.60816 40.5368 8.62611C40.3583 8.62611 40.3549 8.54353 40.3549 8.40709V4.86317C40.3549 4.67646 40.3789 4.60106 40.5814 4.60465C41.4013 4.60465 42.2179 4.60465 43.0345 4.6226C43.4162 4.62879 43.7866 4.7594 44.094 4.99623C44.4015 5.23307 44.6308 5.56434 44.7499 5.94394C44.8803 6.32 44.8993 6.72846 44.8044 7.11599C44.7095 7.50352 44.5052 7.85211 44.2181 8.11625V8.11625Z" fill="white"/>
</g>
<path d="M2.12329 24.0969H0.752702L0.444881 24.9507H0L1.24926 21.6793H1.62674L2.87824 24.9507H2.43561L2.12329 24.0969ZM0.883021 23.7419H1.99522L1.438 22.2118L0.883021 23.7419Z" fill="white"/>
<path d="M7.64287 22.0343H6.59134V24.9507H6.16218V22.0343H5.11289V21.6793H7.64287V22.0343Z" fill="white"/>
<path d="M9.35337 24.9956C9.02383 24.9956 8.7557 24.8878 8.54899 24.6721C8.34228 24.4549 8.23892 24.1651 8.23892 23.8026V23.7262C8.23892 23.485 8.28461 23.27 8.37598 23.0813C8.46885 22.8911 8.59767 22.7428 8.76244 22.6364C8.92871 22.5286 9.10846 22.4747 9.30169 22.4747C9.61775 22.4747 9.86341 22.5788 10.0387 22.787C10.2139 22.9952 10.3016 23.2933 10.3016 23.6812V23.8542H8.65459C8.66059 24.0939 8.73024 24.2879 8.86355 24.4362C8.99837 24.583 9.16913 24.6564 9.37584 24.6564C9.52264 24.6564 9.64696 24.6264 9.74882 24.5665C9.85068 24.5066 9.93981 24.4272 10.0162 24.3283L10.2701 24.526C10.0664 24.8391 9.7608 24.9956 9.35337 24.9956ZM9.30169 22.8162C9.13393 22.8162 8.99312 22.8776 8.87928 23.0004C8.76544 23.1218 8.69504 23.2925 8.66808 23.5127H9.88588V23.4813C9.8739 23.27 9.81698 23.1068 9.71512 22.9914C9.61326 22.8746 9.47545 22.8162 9.30169 22.8162Z" fill="white"/>
<path d="M12.2659 24.6564C12.4142 24.6564 12.5438 24.6114 12.6547 24.5216C12.7655 24.4317 12.8269 24.3193 12.8389 24.1845H13.2321C13.2246 24.3238 13.1767 24.4564 13.0883 24.5822C12.9999 24.708 12.8816 24.8084 12.7333 24.8833C12.5865 24.9582 12.4307 24.9956 12.2659 24.9956C11.9349 24.9956 11.6713 24.8855 11.475 24.6654C11.2803 24.4437 11.183 24.1411 11.183 23.7576V23.688C11.183 23.4513 11.2264 23.2408 11.3133 23.0566C11.4002 22.8724 11.5245 22.7293 11.6863 22.6274C11.8495 22.5256 12.042 22.4747 12.2637 22.4747C12.5363 22.4747 12.7625 22.5563 12.9423 22.7196C13.1235 22.8828 13.2201 23.0948 13.2321 23.3554H12.8389C12.8269 23.1981 12.767 23.0693 12.6592 22.969C12.5528 22.8671 12.421 22.8162 12.2637 22.8162C12.0525 22.8162 11.8885 22.8926 11.7716 23.0454C11.6563 23.1966 11.5986 23.4161 11.5986 23.7037V23.7823C11.5986 24.0624 11.6563 24.2781 11.7716 24.4294C11.887 24.5807 12.0517 24.6564 12.2659 24.6564Z" fill="white"/>
<path d="M14.6213 22.8139C14.8055 22.5877 15.0452 22.4747 15.3403 22.4747C15.8541 22.4747 16.1132 22.7645 16.1177 23.3442V24.9507H15.702V23.3419C15.7005 23.1667 15.6601 23.0371 15.5807 22.9532C15.5028 22.8694 15.3807 22.8274 15.2145 22.8274C15.0797 22.8274 14.9613 22.8634 14.8595 22.9353C14.7576 23.0072 14.6782 23.1015 14.6213 23.2184V24.9507H14.2056V21.4995H14.6213V22.8139Z" fill="white"/>
<path d="M19.5162 21.6793L20.5858 24.3485L21.6553 21.6793H22.2147V24.9507H21.7833V23.6767L21.8238 22.3016L20.7498 24.9507H20.4195L19.3477 22.3084L19.3904 23.6767V24.9507H18.959V21.6793H19.5162Z" fill="white"/>
<path d="M24.9184 24.9507C24.8944 24.9028 24.8749 24.8174 24.8599 24.6946C24.6667 24.8953 24.436 24.9956 24.1679 24.9956C23.9282 24.9956 23.7313 24.9282 23.577 24.7934C23.4242 24.6571 23.3478 24.4849 23.3478 24.2766C23.3478 24.0235 23.4437 23.8273 23.6354 23.688C23.8286 23.5472 24.0997 23.4768 24.4488 23.4768H24.8532V23.2858C24.8532 23.1405 24.8098 23.0251 24.7229 22.9398C24.636 22.8529 24.5079 22.8094 24.3387 22.8094C24.1904 22.8094 24.066 22.8469 23.9657 22.9218C23.8653 22.9967 23.8151 23.0873 23.8151 23.1937H23.3972C23.3972 23.0723 23.4399 22.9555 23.5253 22.8431C23.6122 22.7293 23.729 22.6394 23.8758 22.5735C24.0241 22.5076 24.1866 22.4747 24.3634 22.4747C24.6435 22.4747 24.8629 22.5451 25.0217 22.6859C25.1805 22.8252 25.2629 23.0176 25.2689 23.2633V24.3822C25.2689 24.6054 25.2973 24.7829 25.3543 24.9148V24.9507H24.9184ZM24.2286 24.6339C24.3589 24.6339 24.4825 24.6002 24.5993 24.5328C24.7161 24.4654 24.8008 24.3778 24.8532 24.2699V23.7711H24.5274C24.0181 23.7711 23.7635 23.9201 23.7635 24.2182C23.7635 24.3485 23.8069 24.4504 23.8938 24.5238C23.9807 24.5972 24.0923 24.6339 24.2286 24.6339Z" fill="white"/>
<path d="M26.8423 22.8139C27.0266 22.5877 27.2662 22.4747 27.5613 22.4747C28.0751 22.4747 28.3342 22.7645 28.3387 23.3442V24.9507H27.9231V23.3419C27.9216 23.1667 27.8811 23.0371 27.8017 22.9532C27.7238 22.8694 27.6018 22.8274 27.4355 22.8274C27.3007 22.8274 27.1823 22.8634 27.0805 22.9353C26.9786 23.0072 26.8992 23.1015 26.8423 23.2184V24.9507H26.4266V21.4995H26.8423V22.8139Z" fill="white"/>
<path d="M29.9189 24.9507H29.5032V22.5196H29.9189V24.9507ZM29.4695 21.8747C29.4695 21.8073 29.4898 21.7504 29.5302 21.704C29.5721 21.6575 29.6336 21.6343 29.7144 21.6343C29.7953 21.6343 29.8567 21.6575 29.8987 21.704C29.9406 21.7504 29.9616 21.8073 29.9616 21.8747C29.9616 21.9421 29.9406 21.9983 29.8987 22.0433C29.8567 22.0882 29.7953 22.1107 29.7144 22.1107C29.6336 22.1107 29.5721 22.0882 29.5302 22.0433C29.4898 21.9983 29.4695 21.9421 29.4695 21.8747Z" fill="white"/>
<path d="M31.4856 22.5196L31.4991 22.8252C31.6848 22.5915 31.9275 22.4747 32.2271 22.4747C32.7409 22.4747 33 22.7645 33.0045 23.3442V24.9507H32.5888V23.3419C32.5873 23.1667 32.5469 23.0371 32.4675 22.9532C32.3896 22.8694 32.2675 22.8274 32.1013 22.8274C31.9664 22.8274 31.8481 22.8634 31.7462 22.9353C31.6444 23.0072 31.565 23.1015 31.5081 23.2184V24.9507H31.0924V22.5196H31.4856Z" fill="white"/>
<path d="M34.0364 23.7149C34.0364 23.3419 34.1248 23.0424 34.3016 22.8162C34.4783 22.5885 34.7097 22.4747 34.9959 22.4747C35.2805 22.4747 35.5059 22.572 35.6722 22.7667V21.4995H36.0878V24.9507H35.7059L35.6856 24.6901C35.5194 24.8938 35.2879 24.9956 34.9914 24.9956C34.7097 24.9956 34.4798 24.8803 34.3016 24.6496C34.1248 24.4189 34.0364 24.1179 34.0364 23.7464V23.7149ZM34.4521 23.7621C34.4521 24.0377 34.509 24.2534 34.6229 24.4092C34.7367 24.565 34.894 24.6429 35.0947 24.6429C35.3583 24.6429 35.5508 24.5246 35.6722 24.2879V23.1712C35.5478 22.942 35.3568 22.8274 35.0992 22.8274C34.8955 22.8274 34.7367 22.9061 34.6229 23.0633C34.509 23.2206 34.4521 23.4535 34.4521 23.7621Z" fill="white"/>
<path d="M38.4162 22.8926C38.3533 22.8821 38.2852 22.8768 38.2118 22.8768C37.9391 22.8768 37.7541 22.9929 37.6568 23.2251V24.9507H37.2411V22.5196H37.6455L37.6523 22.8005C37.7886 22.5833 37.9818 22.4747 38.232 22.4747C38.3129 22.4747 38.3743 22.4851 38.4162 22.5061V22.8926Z" fill="white"/>
<path d="M40.7176 24.9507C40.6937 24.9028 40.6742 24.8174 40.6592 24.6946C40.466 24.8953 40.2353 24.9956 39.9672 24.9956C39.7275 24.9956 39.5306 24.9282 39.3763 24.7934C39.2235 24.6571 39.1471 24.4849 39.1471 24.2766C39.1471 24.0235 39.243 23.8273 39.4347 23.688C39.6279 23.5472 39.899 23.4768 40.2481 23.4768H40.6525V23.2858C40.6525 23.1405 40.6091 23.0251 40.5222 22.9398C40.4353 22.8529 40.3072 22.8094 40.138 22.8094C39.9897 22.8094 39.8653 22.8469 39.765 22.9218C39.6646 22.9967 39.6144 23.0873 39.6144 23.1937H39.1965C39.1965 23.0723 39.2392 22.9555 39.3246 22.8431C39.4115 22.7293 39.5283 22.6394 39.6751 22.5735C39.8234 22.5076 39.9859 22.4747 40.1627 22.4747C40.4428 22.4747 40.6622 22.5451 40.821 22.6859C40.9798 22.8252 41.0622 23.0176 41.0682 23.2633V24.3822C41.0682 24.6054 41.0966 24.7829 41.1535 24.9148V24.9507H40.7176ZM40.0279 24.6339C40.1582 24.6339 40.2818 24.6002 40.3986 24.5328C40.5154 24.4654 40.6001 24.3778 40.6525 24.2699V23.7711H40.3267C39.8174 23.7711 39.5628 23.9201 39.5628 24.2182C39.5628 24.3485 39.6062 24.4504 39.6931 24.5238C39.78 24.5972 39.8915 24.6339 40.0279 24.6339Z" fill="white"/>
<path d="M46.3451 23.9127C46.3046 24.2587 46.1766 24.526 45.9609 24.7148C45.7467 24.902 45.4613 24.9956 45.1048 24.9956C44.7183 24.9956 44.4083 24.8571 44.1746 24.58C43.9424 24.3029 43.8263 23.9321 43.8263 23.4678V23.1532C43.8263 22.8491 43.8803 22.5818 43.9881 22.3511C44.0975 22.1204 44.2517 21.9436 44.451 21.8208C44.6502 21.6965 44.8809 21.6343 45.143 21.6343C45.4905 21.6343 45.7691 21.7317 45.9788 21.9264C46.1885 22.1196 46.3106 22.3878 46.3451 22.7308H45.9114C45.874 22.4702 45.7923 22.2814 45.6665 22.1646C45.5422 22.0477 45.3677 21.9893 45.143 21.9893C44.8674 21.9893 44.6509 22.0912 44.4937 22.2949C44.3379 22.4986 44.26 22.7885 44.26 23.1644V23.4813C44.26 23.8363 44.3341 24.1186 44.4824 24.3283C44.6307 24.538 44.8382 24.6429 45.1048 24.6429C45.3445 24.6429 45.528 24.589 45.6553 24.4811C45.7841 24.3718 45.8695 24.1823 45.9114 23.9127H46.3451Z" fill="white"/>
<path d="M47.2669 23.7127C47.2669 23.4745 47.3134 23.2603 47.4062 23.0701C47.5006 22.8798 47.6309 22.733 47.7972 22.6297C47.9649 22.5263 48.1559 22.4747 48.3701 22.4747C48.7012 22.4747 48.9686 22.5892 49.1723 22.8184C49.3775 23.0476 49.4801 23.3524 49.4801 23.7329V23.7621C49.4801 23.9988 49.4344 24.2115 49.343 24.4002C49.2532 24.5875 49.1236 24.7335 48.9543 24.8384C48.7866 24.9432 48.5933 24.9956 48.3746 24.9956C48.0451 24.9956 47.7777 24.8811 47.5725 24.6519C47.3688 24.4227 47.2669 24.1194 47.2669 23.7419V23.7127ZM47.6848 23.7621C47.6848 24.0317 47.747 24.2482 47.8713 24.4115C47.9972 24.5747 48.1649 24.6564 48.3746 24.6564C48.5858 24.6564 48.7536 24.574 48.8779 24.4092C49.0023 24.2429 49.0644 24.0108 49.0644 23.7127C49.0644 23.4461 49.0008 23.2304 48.8734 23.0656C48.7476 22.8993 48.5798 22.8162 48.3701 22.8162C48.1649 22.8162 47.9994 22.8978 47.8736 23.0611C47.7478 23.2244 47.6848 23.458 47.6848 23.7621Z" fill="white"/>
<path d="M50.8985 22.5196L50.9097 22.7892C51.088 22.5795 51.3284 22.4747 51.631 22.4747C51.971 22.4747 52.2024 22.605 52.3253 22.8656C52.4062 22.7488 52.511 22.6544 52.6398 22.5825C52.7701 22.5106 52.9237 22.4747 53.1004 22.4747C53.6337 22.4747 53.9048 22.757 53.9138 23.3217V24.9507H53.4981V23.3464C53.4981 23.1727 53.4584 23.0431 53.379 22.9577C53.2997 22.8709 53.1663 22.8274 52.9791 22.8274C52.8248 22.8274 52.6967 22.8738 52.5949 22.9667C52.493 23.0581 52.4339 23.1817 52.4174 23.3375V24.9507H51.9995V23.3577C51.9995 23.0042 51.8265 22.8274 51.4804 22.8274C51.2078 22.8274 51.0213 22.9435 50.921 23.1757V24.9507H50.5053V22.5196H50.8985Z" fill="white"/>
<path d="M57.1027 23.7621C57.1027 24.1321 57.0181 24.4302 56.8488 24.6564C56.6796 24.8826 56.4504 24.9956 56.1613 24.9956C55.8662 24.9956 55.634 24.902 55.4648 24.7148V25.8854H55.0491V22.5196H55.4288L55.449 22.7892C55.6183 22.5795 55.8535 22.4747 56.1546 22.4747C56.4467 22.4747 56.6773 22.5848 56.8466 22.8049C57.0174 23.0251 57.1027 23.3315 57.1027 23.7239V23.7621ZM56.6871 23.7149C56.6871 23.4408 56.6287 23.2244 56.5118 23.0656C56.395 22.9068 56.2347 22.8274 56.031 22.8274C55.7793 22.8274 55.5906 22.939 55.4648 23.1622V24.3238C55.5891 24.5455 55.7793 24.6564 56.0355 24.6564C56.2347 24.6564 56.3927 24.5777 56.5096 24.4204C56.6279 24.2617 56.6871 24.0265 56.6871 23.7149Z" fill="white"/>
<path d="M59.6401 24.9507C59.6161 24.9028 59.5967 24.8174 59.5817 24.6946C59.3884 24.8953 59.1578 24.9956 58.8896 24.9956C58.65 24.9956 58.453 24.9282 58.2987 24.7934C58.1459 24.6571 58.0695 24.4849 58.0695 24.2766C58.0695 24.0235 58.1654 23.8273 58.3571 23.688C58.5504 23.5472 58.8215 23.4768 59.1705 23.4768H59.5749V23.2858C59.5749 23.1405 59.5315 23.0251 59.4446 22.9398C59.3577 22.8529 59.2297 22.8094 59.0604 22.8094C58.9121 22.8094 58.7878 22.8469 58.6874 22.9218C58.5871 22.9967 58.5369 23.0873 58.5369 23.1937H58.119C58.119 23.0723 58.1616 22.9555 58.247 22.8431C58.3339 22.7293 58.4507 22.6394 58.5975 22.5735C58.7458 22.5076 58.9084 22.4747 59.0851 22.4747C59.3652 22.4747 59.5847 22.5451 59.7434 22.6859C59.9022 22.8252 59.9846 23.0176 59.9906 23.2633V24.3822C59.9906 24.6054 60.0191 24.7829 60.076 24.9148V24.9507H59.6401ZM58.9503 24.6339C59.0806 24.6339 59.2042 24.6002 59.321 24.5328C59.4379 24.4654 59.5225 24.3778 59.5749 24.2699V23.7711H59.2491C58.7398 23.7711 58.4852 23.9201 58.4852 24.2182C58.4852 24.3485 58.5286 24.4504 58.6155 24.5238C58.7024 24.5972 58.814 24.6339 58.9503 24.6339Z" fill="white"/>
<path d="M61.5416 22.5196L61.5551 22.8252C61.7408 22.5915 61.9835 22.4747 62.283 22.4747C62.7968 22.4747 63.056 22.7645 63.0605 23.3442V24.9507H62.6448V23.3419C62.6433 23.1667 62.6029 23.0371 62.5235 22.9532C62.4456 22.8694 62.3235 22.8274 62.1572 22.8274C62.0224 22.8274 61.9041 22.8634 61.8022 22.9353C61.7004 23.0072 61.621 23.1015 61.564 23.2184V24.9507H61.1484V22.5196H61.5416Z" fill="white"/>
<path d="M64.9889 24.3418L65.5551 22.5196H66L65.0226 25.3259C64.8713 25.7304 64.6309 25.9326 64.3014 25.9326L64.2227 25.9259L64.0677 25.8966V25.5596L64.18 25.5686C64.3208 25.5686 64.4302 25.5401 64.5081 25.4832C64.5875 25.4263 64.6526 25.3222 64.7036 25.1709L64.7957 24.9237L63.9284 22.5196H64.3823L64.9889 24.3418Z" fill="white"/>
<defs>
<clipPath id="clip0_295_12248">
<rect width="63.9281" height="17.5041" fill="white" transform="translate(0.920044 0.102051)"/>
</clipPath>
</defs>
</svg>
