<svg width="90" height="25" viewBox="0 0 90 25" fill="none" xmlns="http://www.w3.org/2000/svg">
<path d="M89.9207 21.4494C89.947 21.4453 89.9738 21.4453 90.0001 21.4494V22.3469L89.9661 22.375H89.9264C89.8176 22.2453 89.7575 22.082 89.7565 21.9132C89.7554 21.7444 89.8135 21.5804 89.9207 21.4494V21.4494Z" fill="white"/>
<path d="M3.54957 5.47476C4.79985 4.18903 6.27976 4.02304 7.87025 4.31564C8.59304 4.43374 9.24361 4.8199 9.69036 5.39598C9.82927 5.57041 9.89166 5.58168 10.0618 5.42413C11.5899 3.99772 13.3788 3.89644 15.2443 4.55759C16.4748 4.99367 17.0956 5.96429 17.1183 7.26128C17.1523 9.03935 17.1183 10.8202 17.1353 12.6068C17.1353 12.86 17.0645 12.9387 16.8036 12.9359C15.8057 12.9359 14.819 12.919 13.8098 12.9359C13.5007 12.9359 13.4355 12.8375 13.4355 12.5533C13.4355 11.0735 13.4355 9.5936 13.4355 8.11093C13.4355 7.08122 13.0018 6.57481 12.1087 6.56074C11.8934 6.54822 11.6777 6.57882 11.4746 6.65072C11.2715 6.72262 11.085 6.83434 10.9263 6.97925C10.7676 7.12415 10.6398 7.29927 10.5507 7.49418C10.4616 7.68908 10.413 7.89979 10.4076 8.11375C10.385 9.47544 10.4076 10.8343 10.4076 12.196C10.4076 12.9275 10.4077 12.9275 9.67336 12.9275C8.82284 12.9275 7.94963 12.9275 7.0906 12.9275C6.78157 12.9275 6.71351 12.8318 6.71635 12.5477C6.73052 11.051 6.71635 9.55703 6.71635 8.06029C6.71635 7.14875 6.25139 6.58886 5.47174 6.55229C4.51915 6.50728 3.72816 7.13467 3.70832 8.03215C3.67146 9.49794 3.67997 10.9637 3.70832 12.4295C3.70832 12.8093 3.64596 12.9472 3.22069 12.9303C2.27094 12.8937 1.31549 12.9106 0.365735 12.9303C0.0822255 12.9303 0.00854492 12.86 0.00854492 12.5815C0.0198853 9.97998 0.0198853 7.37757 0.00854492 4.77423C0.00854492 4.49289 0.0850606 4.41411 0.365735 4.41973C1.24178 4.43661 2.12066 4.4535 2.99671 4.41973C3.4078 4.40004 3.5297 4.54915 3.52403 4.91208C3.50135 5.06963 3.53256 5.23281 3.54957 5.47476Z" fill="white"/>
<path d="M28.861 17.1927C30.1623 15.9098 31.6678 15.7016 33.3093 16.0673C33.9656 16.2055 34.5547 16.5618 34.9792 17.0773C35.1266 17.2546 35.2003 17.3193 35.4129 17.1196C36.1387 16.4855 37.0361 16.0771 37.9938 15.945C38.9515 15.813 39.9272 15.9631 40.7996 16.3768C41.2895 16.6037 41.7032 16.9658 41.9913 17.4198C42.2794 17.8738 42.4297 18.4005 42.4241 18.937C42.4553 20.732 42.4241 22.5269 42.4383 24.3219C42.4383 24.6032 42.3391 24.6426 42.0952 24.6398C41.1143 24.6398 40.1305 24.6398 39.1467 24.6398C38.8292 24.6398 38.7385 24.5526 38.7413 24.2375C38.7584 22.7576 38.7413 21.2778 38.7413 19.7951C38.7413 18.7991 38.3076 18.304 37.4259 18.2899C36.4648 18.273 35.7248 18.9089 35.7248 19.8204C35.704 21.2703 35.704 22.721 35.7248 24.1728C35.7248 24.5469 35.6256 24.6539 35.2513 24.6426C34.3299 24.6173 33.4057 24.6145 32.4843 24.6426C32.093 24.6567 32.0165 24.5244 32.0222 24.1643C32.042 22.7126 32.0222 21.2609 32.0222 19.812C32.0222 18.8554 31.5685 18.3124 30.752 18.2899C29.7796 18.2646 29.0283 18.8864 29.0113 19.7895C28.9867 21.2243 28.9867 22.6601 29.0113 24.0968C29.0113 24.516 28.9319 24.6595 28.4754 24.6454C27.5399 24.6089 26.6015 24.6257 25.6631 24.6454C25.3795 24.6454 25.3058 24.5638 25.3087 24.2909C25.3087 21.6895 25.3087 19.0861 25.3087 16.4809C25.3087 16.2221 25.3909 16.1574 25.6432 16.1602C26.5334 16.1602 27.4265 16.1827 28.3195 16.1602C28.6796 16.1602 28.8582 16.2333 28.8242 16.6159C28.8258 16.8087 28.8381 17.0013 28.861 17.1927V17.1927Z" fill="white"/>
<path d="M79.9752 24.6369C78.4811 24.6369 77.092 24.6369 75.7028 24.6369C75.476 24.6369 75.3909 24.485 75.2831 24.3555C74.5829 23.4581 73.8656 22.5634 73.188 21.6547C73.0009 21.4071 72.9045 21.4155 72.621 21.5787C72.4255 21.6833 72.2675 21.8456 72.1689 22.0432C72.0704 22.2408 72.0362 22.4638 72.071 22.6816C72.1164 23.2161 72.071 23.7591 72.071 24.2965C72.071 24.5778 71.9859 24.6509 71.7109 24.6481C70.7442 24.6481 69.7746 24.6284 68.8078 24.6481C68.4733 24.6481 68.3769 24.575 68.3797 24.2318C68.3967 22.0626 68.3797 19.8963 68.3797 17.7271C68.3797 16.2642 68.3797 14.7984 68.3797 13.3326C68.3797 13.0231 68.4506 12.9275 68.7738 12.9331C69.7405 12.9556 70.7101 12.9584 71.6769 12.9331C72.0086 12.9331 72.0738 13.0428 72.0682 13.3438C72.0455 15.0319 72.0398 16.7199 72.0285 18.408V18.9707C72.7429 18.3236 73.446 17.7693 74.0527 17.1166C74.3689 16.7518 74.7724 16.4716 75.2262 16.302C75.68 16.1324 76.1695 16.0787 76.6497 16.146C77.5881 16.2276 78.5378 16.1629 79.5953 16.1629L76.6582 18.5684C76.3321 18.8328 76.0174 19.131 75.6744 19.3617C75.4419 19.5277 75.4476 19.6431 75.6347 19.84C76.9899 21.3283 78.3309 22.8279 79.6747 24.3274C79.7654 24.4006 79.8335 24.4765 79.9752 24.6369Z" fill="white"/>
<path d="M59.9621 17.2066C61.5526 15.7155 63.3642 15.6086 65.2978 16.3626C65.8185 16.5389 66.2693 16.8748 66.5852 17.3218C66.9011 17.7688 67.0658 18.3038 67.0556 18.8497C67.0867 20.6896 67.0555 22.5268 67.0782 24.3668C67.0782 24.5834 67.0073 24.6481 66.7947 24.6481C65.7684 24.6481 64.7393 24.6481 63.713 24.6481C63.4124 24.6481 63.4295 24.5074 63.4295 24.2908C63.4295 22.856 63.4295 21.4211 63.4295 19.9863C63.4295 18.8862 62.9701 18.3826 61.958 18.3742C60.8665 18.3742 60.0812 19.0185 60.067 20.0004C60.0472 21.4071 60.05 22.8138 60.067 24.2205C60.067 24.5412 60.0047 24.6622 59.6503 24.6537C58.6835 24.6284 57.7139 24.634 56.7471 24.6537C56.4466 24.6537 56.3644 24.5721 56.3644 24.2767C56.3757 21.6884 56.3757 19.101 56.3644 16.5145C56.3644 16.2332 56.4466 16.1629 56.7216 16.1685C57.6147 16.1685 58.5077 16.1938 59.398 16.1685C59.7665 16.1544 59.8657 16.2951 59.8799 16.6158C59.8533 16.8165 59.8817 17.0206 59.9621 17.2066V17.2066Z" fill="white"/>
<path d="M89.9207 21.4492C89.9207 21.7559 89.9207 22.0654 89.9207 22.372C89.8724 22.7908 89.7146 23.1897 89.463 23.5293C89.2113 23.8688 88.8746 24.1372 88.4861 24.3077C87.7652 24.6563 86.9818 24.8599 86.1812 24.9069C84.6729 25.0335 83.1618 25.0701 81.6961 24.589C80.6216 24.2373 79.8136 23.5958 79.5216 22.4508C79.4564 22.2004 79.4394 22.0738 79.7767 22.0738C80.6981 22.0738 81.6195 22.0344 82.541 22.0006C82.7819 22.0006 82.9549 22.0006 83.0512 22.282C83.107 22.4386 83.2035 22.5779 83.331 22.6856C83.4584 22.7933 83.6123 22.8656 83.777 22.8953C84.4551 23.0542 85.1604 23.06 85.841 22.9122C86.2152 22.8334 86.5498 22.6759 86.5498 22.2285C86.5498 21.7812 86.1642 21.6349 85.8126 21.5815C85.0982 21.4745 84.3724 21.4239 83.6523 21.3564C82.8078 21.3103 81.9761 21.1308 81.1886 20.8246C79.4223 20.0566 79.1757 17.9043 80.7236 16.7564C81.4079 16.2826 82.2079 15.9999 83.0399 15.9377C84.4585 15.7235 85.9065 15.803 87.2926 16.1712C88.3302 16.4807 89.1864 17.0153 89.5408 18.1266C89.6173 18.3713 89.6485 18.4951 89.3026 18.4951C88.3954 18.4951 87.4882 18.5345 86.5838 18.5655C86.3768 18.5655 86.2152 18.5655 86.1302 18.3207C86.0844 18.2003 86.0082 18.0936 85.9089 18.0109C85.8096 17.9281 85.6905 17.872 85.5631 17.848C84.8769 17.6512 84.1486 17.6512 83.4624 17.848C83.193 17.9268 82.9577 18.0591 82.9747 18.4107C82.9917 18.7624 83.2412 18.8665 83.5105 18.9284C84.3426 19.0769 85.1836 19.1708 86.0281 19.2097C86.8739 19.2561 87.7053 19.4465 88.4861 19.7724C89.2346 20.1129 89.7931 20.608 89.9207 21.4492Z" fill="white"/>
<path d="M47.5531 8.68217C47.5531 9.9679 47.5531 11.2508 47.5531 12.5366C47.5531 12.8488 47.4737 12.9389 47.1533 12.9333C46.1894 12.9107 45.2198 12.9164 44.253 12.9333C43.995 12.9333 43.8844 12.8967 43.8873 12.5985C43.8986 9.98386 43.8986 7.36926 43.8873 4.75466C43.8873 4.50426 43.9496 4.41986 44.2133 4.42268C45.2113 4.43956 46.1979 4.43956 47.2043 4.42268C47.4879 4.42268 47.5502 4.52395 47.5474 4.7856C47.5474 6.08258 47.5531 7.38237 47.5531 8.68217Z" fill="white"/>
<path d="M22.1392 24.8677C21.8821 24.8749 21.6262 24.8304 21.387 24.7366C21.1478 24.6428 20.9303 24.5018 20.7477 24.3222C20.565 24.1425 20.4211 23.9279 20.3245 23.6913C20.2279 23.4548 20.1807 23.2013 20.1858 22.9461C20.1924 22.4392 20.3976 21.9548 20.758 21.5955C21.1185 21.2363 21.6057 21.0305 22.1165 21.0217C22.6329 21.0286 23.1269 21.2322 23.4963 21.5904C23.8657 21.9486 24.0822 22.4339 24.1011 22.9461C24.0966 23.4587 23.8876 23.9487 23.5199 24.3089C23.1523 24.669 22.6558 24.8699 22.1392 24.8677V24.8677Z" fill="white"/>
<path d="M45.4605 0H46.0077C47.0169 0.244767 47.5386 0.813076 47.5641 1.70493C47.6035 2.15729 47.4644 2.60717 47.1762 2.95982C46.888 3.31247 46.4731 3.54039 46.019 3.59555C45.5558 3.67236 45.0806 3.56943 44.6919 3.30806C44.3031 3.0467 44.0306 2.64693 43.9308 2.19161C43.8309 1.73628 43.9114 1.26029 44.1555 0.862244C44.3996 0.464194 44.7887 0.174596 45.2422 0.0534556C45.3017 0.0309482 45.3754 0.0168805 45.4605 0Z" fill="white"/>
<path d="M42.5094 1.53607C42.5094 1.27161 42.413 1.21253 42.1664 1.21534C41.2138 1.21534 40.2612 1.24348 39.3086 1.21534C38.8919 1.20127 38.8153 1.33633 38.8238 1.71614C38.8493 2.8612 38.8238 4.00626 38.8238 5.2329C37.7635 4.33824 36.5784 4.10754 35.3083 4.1413C33.2443 4.1835 30.9026 5.41015 30.6928 8.3783C30.5567 10.3224 31.4781 12.137 33.199 12.7982C35.2459 13.5831 37.2418 13.5775 39.0307 11.9344C39.0634 12.1204 39.0824 12.3084 39.0875 12.4971C39.0648 12.8207 39.1669 12.9388 39.5184 12.9276C40.3945 12.9023 41.2733 12.9276 42.1493 12.9276C42.3847 12.9276 42.5038 12.891 42.5009 12.6181C42.5009 8.92316 42.5037 5.22915 42.5094 1.53607ZM36.6238 10.7809C35.2062 10.7809 34.4096 10.0241 34.3954 8.65682C34.3812 7.2895 35.2091 6.45673 36.6068 6.4511C38.0555 6.4511 38.9145 7.24729 38.9202 8.6118C38.9259 9.9763 38.0895 10.7809 36.6238 10.7809Z" fill="white"/>
<path d="M59.6106 10.6289C59.6106 9.53733 59.6106 8.44572 59.6106 7.35412C59.6106 5.91646 58.9614 5.04993 57.5863 4.5604C56.9578 4.34636 56.3023 4.22041 55.6386 4.18621C54.1105 4.08493 52.5881 4.08212 51.1195 4.59416C50.6199 4.74549 50.1713 5.0289 49.8216 5.41401C49.472 5.79911 49.2346 6.27139 49.1349 6.78019C49.0697 7.06153 49.1349 7.14312 49.4184 7.14874C50.371 7.17688 51.3208 7.21907 52.2734 7.26409C52.4889 7.26409 52.5994 7.23314 52.6278 6.98275C52.648 6.81803 52.7074 6.66045 52.801 6.52299C52.8947 6.38553 53.0199 6.27214 53.1664 6.19218C53.4907 6.02814 53.8517 5.94875 54.2154 5.96148C54.6379 5.92222 55.0637 5.98396 55.4572 6.14154C55.6389 6.23605 55.7859 6.38519 55.8771 6.56762C55.9682 6.75005 55.9989 6.9564 55.9647 7.15718C55.9136 7.55387 55.5848 7.54824 55.3154 7.582C54.584 7.67485 53.8468 7.73675 53.1097 7.81552C52.1231 7.91962 51.1252 7.96462 50.1839 8.33318C49.5744 8.56951 49.0499 8.89586 48.8117 9.54576C48.3524 10.8371 48.5764 12.5533 50.4759 13.0063C52.4605 13.4761 54.394 13.4395 56.1461 12.1847C56.1971 12.3423 56.2538 12.497 56.2935 12.6546C56.2977 12.6945 56.3099 12.7331 56.3294 12.7683C56.3489 12.8034 56.3752 12.8344 56.4069 12.8593C56.4386 12.8842 56.475 12.9025 56.514 12.9133C56.5529 12.924 56.5937 12.927 56.6338 12.9219C57.7366 12.9219 58.8395 12.9219 60.0018 12.9219C59.7157 12.1919 59.5825 11.4117 59.6106 10.6289V10.6289ZM55.1283 10.9525C54.6273 11.1998 54.0748 11.327 53.5152 11.3238C53.2731 11.3324 53.0312 11.304 52.7979 11.2394C52.6269 11.2007 52.4736 11.1073 52.3614 10.9736C52.2492 10.8399 52.1844 10.6733 52.177 10.4995C52.1488 10.3199 52.1821 10.1362 52.2716 9.9776C52.361 9.819 52.5014 9.6947 52.6703 9.62455C53.2373 9.3629 53.844 9.36853 54.4366 9.27569C54.8987 9.20254 55.3664 9.17439 55.8286 9.10405C56.0185 9.07311 56.0526 9.12656 56.0639 9.301C56.101 9.63871 56.0307 9.97947 55.8629 10.2756C55.6952 10.5717 55.4383 10.8084 55.1283 10.9525Z" fill="white"/>
<path d="M52.5855 16.5174C51.5674 16.0638 50.4574 15.85 49.3422 15.8928C48.8834 15.877 48.4242 15.911 47.9728 15.9941C47.211 16.1118 46.4753 16.3593 45.7983 16.7256C44.3382 17.5527 43.5076 18.7653 43.5302 20.4759C43.5529 22.1864 44.3808 23.3962 45.872 24.1333C46.9271 24.6818 48.097 24.9774 49.2879 24.9964C50.4789 25.0155 51.6578 24.7575 52.7301 24.243C54.3518 23.5087 55.3242 22.2399 55.3101 20.4112C55.2789 18.5346 54.2497 17.2883 52.5855 16.5174ZM49.379 22.5803C49.0926 22.5811 48.8088 22.5254 48.5442 22.4164C48.2796 22.3075 48.0395 22.1474 47.8377 21.9456C47.6359 21.7438 47.4765 21.5043 47.3688 21.2409C47.2611 20.9775 47.2072 20.6954 47.2102 20.4112C47.2125 19.8363 47.4434 19.2856 47.8527 18.8788C48.2621 18.4721 48.8168 18.2422 49.3961 18.2392C49.9818 18.2502 50.5401 18.4873 50.9525 18.9002C51.3649 19.3131 51.5988 19.8692 51.6046 20.4506C51.5883 21.024 51.3461 21.5682 50.93 21.9663C50.5139 22.3645 49.9571 22.585 49.379 22.5803V22.5803Z" fill="white"/>
<path d="M22.2726 9.43899C24.6428 9.43899 27.0158 9.43899 29.3887 9.43899C29.6978 9.43899 29.797 9.37428 29.7941 9.05074C29.7941 7.21077 29.0031 5.79 27.3503 4.96286C26.2838 4.403 25.0944 4.11361 23.8879 4.12048C22.6814 4.12735 21.4954 4.43027 20.4355 5.00225C19.7105 5.33737 19.1053 5.88333 18.7002 6.56771C18.2951 7.25208 18.1093 8.04252 18.1674 8.83412C18.2241 10.5222 19.103 11.7235 20.6169 12.4747C22.0345 13.1724 23.5371 13.2962 25.0765 13.1668C26.1365 13.1056 27.1619 12.77 28.0505 12.1933C28.7051 11.7703 29.2137 11.1587 29.5078 10.4406L26.3892 10.2605C26.3268 10.2605 26.2673 10.2605 26.2077 10.2605C26.141 10.2478 26.0719 10.2575 26.0114 10.2881C25.9508 10.3187 25.9022 10.3683 25.8732 10.4293C25.2296 11.4028 23.1997 11.3127 22.4711 10.7107C22.2285 10.5077 22.0413 10.2474 21.9267 9.95385C21.7623 9.46713 21.7793 9.43899 22.2726 9.43899ZM21.8984 7.4696C21.9641 7.24664 22.0774 7.04031 22.2305 6.86459C22.3836 6.68887 22.573 6.54787 22.7858 6.45115C23.1642 6.27924 23.5766 6.19379 23.9927 6.20109C24.4088 6.2084 24.8179 6.30828 25.1899 6.49335C25.4216 6.61243 25.6171 6.79073 25.7562 7.00983C25.8952 7.22893 25.9728 7.48089 25.9809 7.7397C24.6626 7.7397 23.3698 7.7397 22.0742 7.7397C21.8332 7.73688 21.836 7.6356 21.8984 7.46117V7.4696Z" fill="white"/>
</svg>
